<svg xmlns="http://www.w3.org/2000/svg" viewBox="0 0 327.54 93.55"><defs><style>.cls-1{fill:#fff;}.cls-2{fill:#cc7532;}.cls-3{fill:#91512f;}</style></defs><g id="Layer_2" data-name="Layer 2"><g id="Layer_1-2" data-name="Layer 1"><path class="cls-1" d="M124.68,31.73h2.73V55.18h14.46v2.36H124.68Z"/><path class="cls-1" d="M157.06,39.9a7.35,7.35,0,0,1,2,5.62v12h-2.5v-3a6,6,0,0,1-2.6,2.36,9.06,9.06,0,0,1-4.08.85,8,8,0,0,1-5.16-1.55,5.33,5.33,0,0,1-.13-8.08c1.19-1,3.09-1.51,5.7-1.51h6.16V45.41a4.94,4.94,0,0,0-1.41-3.81A5.73,5.73,0,0,0,151,40.29a10.29,10.29,0,0,0-3.54.61,8.84,8.84,0,0,0-2.91,1.67l-1.18-2a10.43,10.43,0,0,1,3.54-1.94,14,14,0,0,1,4.35-.68A8.22,8.22,0,0,1,157.06,39.9Zm-2.95,14.75a6.12,6.12,0,0,0,2.36-2.93V48.55h-6.09q-5,0-5,3.46a3.18,3.18,0,0,0,1.3,2.68,5.87,5.87,0,0,0,3.61,1A6.89,6.89,0,0,0,154.11,54.65Z"/><path class="cls-1" d="M164.67,57a9.56,9.56,0,0,1-3.37-1.71l1.18-2.06a9.76,9.76,0,0,0,3.06,1.56,12,12,0,0,0,3.83.61,7.37,7.37,0,0,0,3.93-.83,2.63,2.63,0,0,0,1.27-2.34,2.11,2.11,0,0,0-.7-1.68,4.79,4.79,0,0,0-1.77-.92,25.59,25.59,0,0,0-2.84-.61,31.39,31.39,0,0,1-3.8-.9A5.6,5.6,0,0,1,163,46.59a4.31,4.31,0,0,1-1-3.06,4.79,4.79,0,0,1,2-4A9.16,9.16,0,0,1,169.67,38a14.78,14.78,0,0,1,3.76.5,10.3,10.3,0,0,1,3.09,1.31l-1.14,2.1a9.76,9.76,0,0,0-5.71-1.66,6.59,6.59,0,0,0-3.78.89,2.71,2.71,0,0,0-1.28,2.32,2.28,2.28,0,0,0,.72,1.77,4.37,4.37,0,0,0,1.79,1,28.11,28.11,0,0,0,2.95.65,33.36,33.36,0,0,1,3.72.89,5.32,5.32,0,0,1,2.4,1.51,4.12,4.12,0,0,1,1,3,4.69,4.69,0,0,1-2.12,4,10.07,10.07,0,0,1-5.88,1.5A14.73,14.73,0,0,1,164.67,57Z"/><path class="cls-1" d="M193.15,39.9a7.35,7.35,0,0,1,2,5.62v12h-2.51v-3a6,6,0,0,1-2.6,2.36,9,9,0,0,1-4.07.85,8,8,0,0,1-5.16-1.55,5.33,5.33,0,0,1-.13-8.08c1.19-1,3.09-1.51,5.69-1.51h6.16V45.41a5,5,0,0,0-1.4-3.81,5.75,5.75,0,0,0-4.09-1.31,10.29,10.29,0,0,0-3.54.61,8.84,8.84,0,0,0-2.91,1.67l-1.18-2A10.43,10.43,0,0,1,183,38.68a13.85,13.85,0,0,1,4.35-.68A8.18,8.18,0,0,1,193.15,39.9Zm-3,14.75a6,6,0,0,0,2.36-2.93V48.55h-6.08q-5,0-5,3.46a3.2,3.2,0,0,0,1.29,2.68,5.89,5.89,0,0,0,3.61,1A6.84,6.84,0,0,0,190.2,54.65Z"/><path class="cls-1" d="M216.64,38.15v17q0,4.95-2.42,7.32c-1.61,1.59-4,2.38-7.28,2.38a16.27,16.27,0,0,1-5.11-.79,10.44,10.44,0,0,1-3.92-2.2l1.32-2a10.05,10.05,0,0,0,3.42,2,12.84,12.84,0,0,0,4.22.7q3.67,0,5.42-1.72T214,55.51V53a7.87,7.87,0,0,1-3.19,2.81,9.83,9.83,0,0,1-4.37,1,10.31,10.31,0,0,1-5-1.2,8.91,8.91,0,0,1-3.5-3.36,10,10,0,0,1,0-9.75,8.89,8.89,0,0,1,3.48-3.32,10.52,10.52,0,0,1,5-1.18,9.72,9.72,0,0,1,4.46,1,8,8,0,0,1,3.21,2.87V38.15Zm-6.12,15.43a6.41,6.41,0,0,0,2.63-2.53,7.17,7.17,0,0,0,.94-3.68,7.09,7.09,0,0,0-.94-3.67,6.57,6.57,0,0,0-2.61-2.51,8.56,8.56,0,0,0-7.6,0,6.46,6.46,0,0,0-2.62,2.51,7.69,7.69,0,0,0,0,7.37,6.51,6.51,0,0,0,2.62,2.53,7.88,7.88,0,0,0,3.78.9A8,8,0,0,0,210.52,53.58Z"/><path class="cls-1" d="M235.24,40.12a8.28,8.28,0,0,1,2.16,6.18V57.54h-2.62v-11A6.45,6.45,0,0,0,233.27,42,5.68,5.68,0,0,0,229,40.36a6.64,6.64,0,0,0-5,1.86,7.07,7.07,0,0,0-1.82,5.15V57.54h-2.62V38.15h2.51v3.58A7.28,7.28,0,0,1,225,39a9.55,9.55,0,0,1,4.41-1A8,8,0,0,1,235.24,40.12Z"/><path class="cls-1" d="M253.43,39.9a7.35,7.35,0,0,1,2,5.62v12H253v-3a6,6,0,0,1-2.6,2.36,9,9,0,0,1-4.07.85,8,8,0,0,1-5.16-1.55A5.33,5.33,0,0,1,241,48.1c1.19-1,3.09-1.51,5.7-1.51h6.15V45.41a4.93,4.93,0,0,0-1.4-3.81,5.75,5.75,0,0,0-4.09-1.31,10.29,10.29,0,0,0-3.54.61,8.84,8.84,0,0,0-2.91,1.67l-1.18-2a10.43,10.43,0,0,1,3.54-1.94,13.85,13.85,0,0,1,4.35-.68A8.18,8.18,0,0,1,253.43,39.9Zm-3,14.75a6,6,0,0,0,2.36-2.93V48.55h-6.08q-5,0-5,3.46a3.2,3.2,0,0,0,1.29,2.68,5.9,5.9,0,0,0,3.62,1A6.83,6.83,0,0,0,250.48,54.65Z"/><path class="cls-2" d="M282.52,57.54l0-15.48-7.6,12.75H272.2l-7.56-12.42V57.54H259V31.73H264l9.66,16,9.51-16h4.9l.08,25.81Z"/><path class="cls-2" d="M306.71,39.61q2.48,2.19,2.47,6.61V57.54H303.8V55.07c-1.09,1.85-3.1,2.77-6.05,2.77a9.29,9.29,0,0,1-4-.78,5.88,5.88,0,0,1-2.57-2.14,5.53,5.53,0,0,1-.88-3.09,5.14,5.14,0,0,1,2.08-4.35c1.39-1.06,3.53-1.59,6.44-1.59h4.57A3.63,3.63,0,0,0,302.28,43a5,5,0,0,0-3.42-1,10.08,10.08,0,0,0-3.12.5,8.09,8.09,0,0,0-2.6,1.35l-2.06-4A12.45,12.45,0,0,1,295,38a17.29,17.29,0,0,1,4.66-.63Q304.24,37.41,306.71,39.61Zm-4.9,13.67a3.72,3.72,0,0,0,1.62-2v-2h-3.95c-2.36,0-3.54.77-3.54,2.32a2.06,2.06,0,0,0,.87,1.75,3.91,3.91,0,0,0,2.38.65A5,5,0,0,0,301.81,53.28Z"/><path class="cls-2" d="M312.46,34a3.11,3.11,0,0,1,0-4.57,3.61,3.61,0,0,1,2.58-.92,3.72,3.72,0,0,1,2.58.88,2.82,2.82,0,0,1,1,2.21,3.12,3.12,0,0,1-1,2.38,3.58,3.58,0,0,1-2.58.94A3.65,3.65,0,0,1,312.46,34Zm-.3,3.69h5.76V57.54h-5.76Z"/><path class="cls-2" d="M321.79,30.19h5.75V57.54h-5.75Z"/><path class="cls-2" d="M85.71,18.37a.91.91,0,0,1,.07,1.7C77.25,23.86,56.75,33,49.9,36.14a4.11,4.11,0,0,1-3.81,0c-11.65-5.36-32.7-14.88-41.43-19a2.32,2.32,0,0,1-.08-4.18q2.53-1.34,5.16-2.43c4.7-2,9.67-2.84,14.63-3.8,6.75-1.3,13.5-2.64,19.83-5.41.45-.19,1.26-.49,2.13-.79a9,9,0,0,1,6.44.23c.84.36,1.69.74,2.3,1.05,6.51,3.32,12.4,7.6,18.48,11.56C76,14.91,82.31,17.2,85.71,18.37Z"/><path class="cls-2" d="M45.37,55.75l-.15,35.3a2.21,2.21,0,0,1-3.11,2L1.55,75.59a2.16,2.16,0,0,1-1.32-2C.16,67.49-.13,42.93.06,43.1c6.51,6,12.25,11.67,18.72,17.68a4,4,0,0,0,4.16,1C30.07,59.83,45,55.85,45.37,55.75Z"/><path class="cls-2" d="M45.39,50.12l-22.25,6.3a3.18,3.18,0,0,1-3-.7L.24,37.42l.15-13a2.15,2.15,0,0,1,3.06-1.88l39.89,18a3.36,3.36,0,0,1,2,3Z"/><path class="cls-3" d="M88.05,65a2.92,2.92,0,0,1,0,.5.73.73,0,0,1-.93.59h0c-5.36-1.54-8.49-1.41-13,1.63a60.11,60.11,0,0,1-11.16,6.24,28.53,28.53,0,0,1-10.8,2.42,1.85,1.85,0,0,1-1.88-1.83c0-2.7,0-5.4,0-8.1a2.2,2.2,0,0,1,1-1.82c2.22-1.44,7.69-4.66,12.14-4.66,9.3,0,16.5.84,23.94-6.4.37-.36,1,.05,1,.56C88.28,56.56,88.14,62.3,88.05,65Z"/><path class="cls-2" d="M87.67,74.67a3.1,3.1,0,0,1-1.79,2.8l-9.57,4.58c-6.28,3.08-17.8,8.69-23.15,11.3a2,2,0,0,1-2.87-1.74V82.37A1.72,1.72,0,0,1,52,80.66c2.47-.13,7.06-.47,9.51-1.33,5.19-1.82,11.63-7.57,16.7-9.73a10.36,10.36,0,0,1,8-.17s1.48.53,1.48,1.42Z"/><path class="cls-3" d="M88.34,27.31c-.06,1.83-.17,3.66-.31,5.48a3.61,3.61,0,0,1-.48,1.15c-4.35,8.42-20.5,9.84-26,9.84-5,0-8.67,3.81-10.52,5.56a.47.47,0,0,1-.79-.33c0-2.32,0-5.69,0-7.39,0-.25.41-.57.7-.7q10.86-5,21.73-9.91c4.57-2.09,7.35-3.27,11.93-5.34a5.52,5.52,0,0,1,1.3-.49A2,2,0,0,1,88.34,27.31Z"/><path class="cls-2" d="M86.49,50.21,81,54a13.08,13.08,0,0,1-8.61,2.74A64.28,64.28,0,0,1,65,56.44c-3.9-.37-10.08,2.35-13,3.78a1.18,1.18,0,0,1-1.71-1c0-1.25,0-4.05,0-5.14,0-.78,4.62-6.34,10.66-6.34,13.58,0,23-4.27,25.41-6.62.6-.6,1.68.11,1.7.95,0,1.08,0,4-.12,5.79A3,3,0,0,1,86.49,50.21Z"/></g></g></svg>