<svg xmlns="http://www.w3.org/2000/svg" viewBox="0 0 125.8 133.23"><defs><style>.cls-1{fill:#cc7532;}.cls-2{fill:#91512f;}</style></defs><g id="Layer_2" data-name="Layer 2"><g id="Layer_1-2" data-name="Layer 1"><path class="cls-1" d="M122.05,26.15a1.3,1.3,0,0,1,.11,2.44C110,34,80.82,47,71.06,51.47a5.84,5.84,0,0,1-5.42-.06C49,43.78,19.07,30.22,6.63,24.35a3.3,3.3,0,0,1-.1-6c2.41-1.27,4.84-2.42,7.35-3.46,6.68-2.78,13.76-4,20.82-5.41,9.62-1.86,19.23-3.76,28.24-7.7.64-.28,1.81-.7,3-1.13A12.75,12.75,0,0,1,75.14,1c1.21.52,2.42,1,3.29,1.5C87.7,7.25,96.08,13.35,104.75,19,108.2,21.23,117.22,24.49,122.05,26.15Z"/><path class="cls-1" d="M64.61,79.39l-.21,50.27a3.16,3.16,0,0,1-4.43,2.8L2.21,107.65a3.08,3.08,0,0,1-1.88-2.77c-.1-8.77-.51-43.75-.24-43.5C9.35,69.89,17.53,78,26.75,86.56A5.72,5.72,0,0,0,32.67,88C42.82,85.2,64,79.54,64.61,79.39Z"/><path class="cls-1" d="M64.64,71.38,33,80.35a4.53,4.53,0,0,1-4.26-1L.34,53.29.55,34.75a3.08,3.08,0,0,1,4.37-2.68L61.71,57.65A4.8,4.8,0,0,1,64.57,62Z"/><path class="cls-2" d="M125.39,92.52a5.83,5.83,0,0,1-.06.71,1.05,1.05,0,0,1-1.34.84h0c-7.62-2.18-12.09-2-18.5,2.33a85,85,0,0,1-15.88,8.88c-4.92,2-10,3.48-15.38,3.46a2.66,2.66,0,0,1-2.69-2.62c0-3.84,0-7.69,0-11.53A3.14,3.14,0,0,1,73,92c3.16-2,11-6.63,17.29-6.63,13.23,0,23.49,1.2,34.09-9.12.52-.51,1.45.08,1.43.81C125.72,80.55,125.52,88.72,125.39,92.52Z"/><path class="cls-1" d="M124.85,106.34a4.45,4.45,0,0,1-2.54,4l-13.63,6.52c-9,4.38-25.35,12.38-33,16.09a2.83,2.83,0,0,1-4.09-2.47V117.3A2.47,2.47,0,0,1,74,114.86c3.52-.17,10.06-.66,13.54-1.88,7.4-2.6,16.57-10.78,23.78-13.86a14.71,14.71,0,0,1,11.44-.24s2.11.75,2.11,2Z"/><path class="cls-2" d="M125.8,38.9c-.08,2.6-.24,5.2-.44,7.8a5.29,5.29,0,0,1-.68,1.64c-6.19,12-29.2,14-37,14-7.12,0-12.35,5.42-15,7.91a.66.66,0,0,1-1.12-.46c0-3.31,0-8.11,0-10.53,0-.35.58-.81,1-1q15.45-7.08,30.94-14.11c6.52-3,10.48-4.65,17-7.61a8.36,8.36,0,0,1,1.84-.69A2.89,2.89,0,0,1,125.8,38.9Z"/><path class="cls-1" d="M123.18,71.5,115.32,77c-3.73,2.94-7.49,3.82-12.26,3.9a93.58,93.58,0,0,1-10.45-.47c-5.56-.53-14.36,3.34-18.54,5.37a1.67,1.67,0,0,1-2.43-1.44c0-1.79,0-5.77,0-7.32,0-1.11,6.58-9,15.18-9,19.34,0,32.74-6.09,36.18-9.43.87-.85,2.39.16,2.43,1.35.05,1.54-.06,5.65-.18,8.25A4.19,4.19,0,0,1,123.18,71.5Z"/></g></g></svg>