<svg xmlns="http://www.w3.org/2000/svg" viewBox="0 0 288.89 213.36"><defs><style>.cls-1{fill:#fff;}.cls-2{fill:#cc7532;}.cls-3{fill:#91512f;}</style></defs><g id="Layer_2" data-name="Layer 2"><g id="Layer_1-2" data-name="Layer 1"><path class="cls-1" d="M6,166.16H9.87v33.39H30.45v3.36H6Z" transform="translate(-5.99)"/><path class="cls-1" d="M52.09,177.79q2.88,2.7,2.88,8v17.11H51.4v-4.3A8.59,8.59,0,0,1,47.7,202a13,13,0,0,1-5.8,1.21A11.36,11.36,0,0,1,34.55,201a7.58,7.58,0,0,1-.18-11.5c1.69-1.43,4.4-2.15,8.11-2.15h8.77v-1.68a7.07,7.07,0,0,0-2-5.43,8.2,8.2,0,0,0-5.83-1.87,14.76,14.76,0,0,0-5,.87,12.72,12.72,0,0,0-4.15,2.39l-1.68-2.79a14.93,14.93,0,0,1,5-2.75,19.58,19.58,0,0,1,6.2-1Q49.19,175.09,52.09,177.79Zm-4.2,21a8.66,8.66,0,0,0,3.36-4.17V190.1H42.58q-7.08,0-7.09,4.94a4.51,4.51,0,0,0,1.84,3.8,8.36,8.36,0,0,0,5.15,1.4A9.78,9.78,0,0,0,47.89,198.79Z" transform="translate(-5.99)"/><path class="cls-1" d="M62.93,202.21a13.94,13.94,0,0,1-4.81-2.45l1.68-2.94a14.05,14.05,0,0,0,4.36,2.23,17.24,17.24,0,0,0,5.46.87,10.38,10.38,0,0,0,5.59-1.18A3.76,3.76,0,0,0,77,195.41,3,3,0,0,0,76,193a6.71,6.71,0,0,0-2.52-1.32,37.85,37.85,0,0,0-4.05-.86,45.32,45.32,0,0,1-5.4-1.29,7.92,7.92,0,0,1-3.49-2.23A6.17,6.17,0,0,1,59.12,183,6.82,6.82,0,0,1,62,177.29q2.88-2.21,8-2.2a21,21,0,0,1,5.36.7,15,15,0,0,1,4.41,1.87l-1.63,3A14,14,0,0,0,70,178.29a9.44,9.44,0,0,0-5.38,1.26,3.85,3.85,0,0,0-1.81,3.31,3.27,3.27,0,0,0,1,2.52,6.36,6.36,0,0,0,2.55,1.39,41.1,41.1,0,0,0,4.2.92,48,48,0,0,1,5.3,1.26,7.79,7.79,0,0,1,3.42,2.15,6,6,0,0,1,1.41,4.2,6.68,6.68,0,0,1-3,5.75q-3,2.13-8.38,2.13A21.44,21.44,0,0,1,62.93,202.21Z" transform="translate(-5.99)"/><path class="cls-1" d="M103.49,177.79c1.92,1.8,2.89,4.47,2.89,8v17.11h-3.57v-4.3a8.65,8.65,0,0,1-3.7,3.36,13.07,13.07,0,0,1-5.81,1.21A11.36,11.36,0,0,1,86,201a7.58,7.58,0,0,1-.18-11.5q2.55-2.15,8.11-2.15h8.77v-1.68a7.07,7.07,0,0,0-2-5.43,8.19,8.19,0,0,0-5.82-1.87,14.72,14.72,0,0,0-5,.87,12.52,12.52,0,0,0-4.15,2.39L84,178.81a14.93,14.93,0,0,1,5-2.75,19.52,19.52,0,0,1,6.19-1C98.8,175.09,101.56,176,103.49,177.79Zm-4.2,21a8.66,8.66,0,0,0,3.36-4.17V190.1H94q-7.09,0-7.09,4.94a4.48,4.48,0,0,0,1.84,3.8,8.33,8.33,0,0,0,5.14,1.4A9.78,9.78,0,0,0,99.29,198.79Z" transform="translate(-5.99)"/><path class="cls-1" d="M136.94,175.3v24.25q0,7-3.44,10.43t-10.37,3.38a23,23,0,0,1-7.28-1.13,15,15,0,0,1-5.59-3.12l1.89-2.84a14.27,14.27,0,0,0,4.86,2.79,18.26,18.26,0,0,0,6,1q5.25,0,7.72-2.44c1.64-1.62,2.47-4.15,2.47-7.58v-3.52a11.28,11.28,0,0,1-4.54,4,14.09,14.09,0,0,1-6.23,1.36,14.76,14.76,0,0,1-7.06-1.7,12.61,12.61,0,0,1-5-4.78,13.53,13.53,0,0,1-1.81-7,13.36,13.36,0,0,1,1.81-6.93,12.48,12.48,0,0,1,5-4.72,14.81,14.81,0,0,1,7.08-1.68,14.09,14.09,0,0,1,6.36,1.41,11.5,11.5,0,0,1,4.57,4.1v-5.3Zm-8.72,22a9.29,9.29,0,0,0,3.75-3.6,10.2,10.2,0,0,0,1.34-5.25A10,10,0,0,0,132,183.2a9.33,9.33,0,0,0-3.72-3.57,12.12,12.12,0,0,0-10.82,0,9.16,9.16,0,0,0-3.73,3.57,11,11,0,0,0,0,10.5,9.37,9.37,0,0,0,3.73,3.6,11.14,11.14,0,0,0,5.38,1.29A11.29,11.29,0,0,0,128.22,197.27Z" transform="translate(-5.99)"/><path class="cls-1" d="M163.42,178.1q3.08,3,3.08,8.8v16h-3.73V187.27q0-4.31-2.15-6.57a8.13,8.13,0,0,0-6.15-2.25,9.43,9.43,0,0,0-7.06,2.65,10,10,0,0,0-2.6,7.32v14.49h-3.73V175.3h3.57v5.09a10.44,10.44,0,0,1,4.23-3.91,13.47,13.47,0,0,1,6.27-1.39A11.27,11.27,0,0,1,163.42,178.1Z" transform="translate(-5.99)"/><path class="cls-1" d="M189.33,177.79q2.89,2.7,2.89,8v17.11h-3.57v-4.3A8.59,8.59,0,0,1,185,202a13,13,0,0,1-5.8,1.21A11.36,11.36,0,0,1,171.8,201a7.59,7.59,0,0,1-.19-11.5q2.55-2.15,8.12-2.15h8.77v-1.68a7.07,7.07,0,0,0-2-5.43,8.2,8.2,0,0,0-5.83-1.87,14.76,14.76,0,0,0-5,.87,12.72,12.72,0,0,0-4.15,2.39l-1.68-2.79a14.93,14.93,0,0,1,5-2.75,19.58,19.58,0,0,1,6.2-1C184.64,175.09,187.41,176,189.33,177.79Zm-4.2,21a8.62,8.62,0,0,0,3.37-4.17V190.1h-8.67q-7.08,0-7.09,4.94a4.51,4.51,0,0,0,1.84,3.8,8.36,8.36,0,0,0,5.15,1.4A9.73,9.73,0,0,0,185.13,198.79Z" transform="translate(-5.99)"/><path class="cls-2" d="M230.76,202.91l0-22L219.89,199h-3.83l-10.76-17.7v21.58h-8V166.16h7L218.11,189l13.55-22.84h7l.1,36.75Z" transform="translate(-5.99)"/><path class="cls-2" d="M265.21,177.37q3.51,3.12,3.51,9.42v16.12h-7.66V199.4q-2.31,3.93-8.61,3.93a13.31,13.31,0,0,1-5.65-1.1,8.42,8.42,0,0,1-3.65-3,8,8,0,0,1-1.26-4.41,7.35,7.35,0,0,1,3-6.2c2-1.5,5-2.26,9.16-2.26h6.51a5.23,5.23,0,0,0-1.62-4.12,7.21,7.21,0,0,0-4.89-1.44,14.4,14.4,0,0,0-4.44.7,12.08,12.08,0,0,0-3.7,1.92l-2.94-5.72a17.55,17.55,0,0,1,5.54-2.52,24.61,24.61,0,0,1,6.64-.89Q261.69,174.25,265.21,177.37Zm-7,19.48a5.28,5.28,0,0,0,2.31-2.86V191.1h-5.62q-5,0-5,3.31a3,3,0,0,0,1.24,2.49,5.56,5.56,0,0,0,3.38.92A7.11,7.11,0,0,0,258.22,196.85Z" transform="translate(-5.99)"/><path class="cls-2" d="M273.4,169.41a4.22,4.22,0,0,1-1.42-3.25,4.27,4.27,0,0,1,1.42-3.26,5.2,5.2,0,0,1,3.67-1.31,5.34,5.34,0,0,1,3.68,1.26,4.06,4.06,0,0,1,1.42,3.15,4.47,4.47,0,0,1-1.42,3.39,5.74,5.74,0,0,1-7.35,0Zm-.42,5.26h8.19v28.24H273Z" transform="translate(-5.99)"/><path class="cls-2" d="M286.68,164h8.19v39h-8.19Z" transform="translate(-5.99)"/><path class="cls-2" d="M208.51,26.15a1.3,1.3,0,0,1,.1,2.44C196.46,34,167.27,47,157.52,51.47a5.86,5.86,0,0,1-5.43-.06c-16.6-7.63-46.56-21.19-59-27.06a3.3,3.3,0,0,1-.1-6c2.41-1.27,4.85-2.42,7.35-3.46,6.68-2.78,13.76-4,20.82-5.41,9.62-1.86,19.23-3.76,28.25-7.7.63-.28,1.8-.7,3-1.13A12.78,12.78,0,0,1,161.6,1c1.2.52,2.41,1,3.28,1.5C174.15,7.25,182.53,13.35,191.2,19,194.66,21.23,203.67,24.49,208.51,26.15Z" transform="translate(-5.99)"/><path class="cls-2" d="M151.06,79.39l-.21,50.27a3.16,3.16,0,0,1-4.43,2.8L88.66,107.65a3.08,3.08,0,0,1-1.88-2.77c-.1-8.77-.51-43.75-.24-43.5C95.8,69.89,104,78,113.2,86.56A5.72,5.72,0,0,0,119.12,88C129.28,85.2,150.48,79.54,151.06,79.39Z" transform="translate(-5.99)"/><path class="cls-2" d="M151.09,71.38l-31.68,9a4.54,4.54,0,0,1-4.27-1L86.8,53.29,87,34.75a3.07,3.07,0,0,1,4.36-2.68l56.8,25.58A4.83,4.83,0,0,1,151,62Z" transform="translate(-5.99)"/><path class="cls-3" d="M211.85,92.52c0,.23,0,.47-.07.71a1,1,0,0,1-1.34.84h0c-7.62-2.18-12.09-2-18.49,2.33a84.73,84.73,0,0,1-15.89,8.88c-4.91,2-10,3.48-15.38,3.46a2.67,2.67,0,0,1-2.69-2.62c0-3.84,0-7.69,0-11.53a3.14,3.14,0,0,1,1.44-2.6c3.16-2,10.95-6.63,17.29-6.63,13.23,0,23.49,1.2,34.09-9.12.53-.51,1.45.08,1.43.81C212.17,80.55,212,88.72,211.85,92.52Z" transform="translate(-5.99)"/><path class="cls-2" d="M211.3,106.34a4.44,4.44,0,0,1-2.54,4l-13.63,6.52c-8.95,4.38-25.35,12.38-33,16.09a2.83,2.83,0,0,1-4.09-2.47V117.3a2.47,2.47,0,0,1,2.37-2.44c3.52-.17,10.06-.66,13.54-1.88,7.4-2.6,16.57-10.78,23.78-13.86a14.74,14.74,0,0,1,11.45-.24s2.1.75,2.1,2Z" transform="translate(-5.99)"/><path class="cls-3" d="M212.25,38.9c-.08,2.6-.24,5.2-.44,7.8a5.51,5.51,0,0,1-.67,1.64c-6.2,12-29.21,14-37,14-7.13,0-12.35,5.42-15,7.91A.67.67,0,0,1,158,69.8c0-3.31,0-8.11.05-10.53,0-.35.58-.81,1-1Q174.52,51.19,190,44.16c6.52-3,10.48-4.65,17-7.61a8.36,8.36,0,0,1,1.84-.69A2.89,2.89,0,0,1,212.25,38.9Z" transform="translate(-5.99)"/><path class="cls-2" d="M209.63,71.5,201.78,77c-3.74,2.94-7.49,3.82-12.26,3.9a93.48,93.48,0,0,1-10.45-.47c-5.57-.53-14.37,3.34-18.55,5.37a1.67,1.67,0,0,1-2.43-1.44c0-1.79,0-5.77-.05-7.32,0-1.11,6.58-9,15.18-9,19.35,0,32.75-6.09,36.18-9.43.87-.85,2.4.16,2.43,1.35.06,1.54-.05,5.65-.18,8.25A4.17,4.17,0,0,1,209.63,71.5Z" transform="translate(-5.99)"/></g></g></svg>